<svg width="175" height="175" viewBox="0 0 175 175" fill="none" xmlns="http://www.w3.org/2000/svg">
<path d="M44.3188 87.5003C44.3304 76.0514 48.8835 65.0749 56.9791 56.9793C65.0746 48.8838 76.0512 44.3306 87.5 44.319C95.0754 44.3347 102.515 46.3349 109.076 50.1205C115.638 53.9061 121.093 59.3449 124.899 65.8951L113.969 72.2169L150.624 51.0565C149.681 49.3457 148.319 47.9029 146.665 46.8638L93.1073 15.9471C90.0156 14.1607 84.9698 14.1607 81.8854 15.9471L28.3281 46.8638C25.2511 48.643 22.7281 53.018 22.7281 56.5836V118.417C22.7281 120.203 23.3552 122.187 24.3761 123.944L50.1084 109.084C46.3056 102.527 44.3079 95.0799 44.3188 87.5003Z" fill="black"/>
<path d="M106.196 76.7007C104.295 73.4245 101.568 70.7039 98.2878 68.8104C95.0074 66.9168 91.2877 65.9164 87.5 65.9091C83.7134 65.9164 79.9951 66.9186 76.7176 68.8151C73.4401 70.7116 70.7185 73.436 68.8251 76.7153C66.9318 79.9947 65.9333 83.7139 65.9296 87.5005C65.926 91.2872 66.9172 95.0083 68.8042 98.2914L87.5 87.4997L106.196 76.7007Z" fill="black"/>
<path d="M150.624 51.056L113.83 72.2966L106.203 76.7081L106.196 76.7008L87.5 87.4997L68.8115 98.2914C70.7069 101.571 73.4311 104.296 76.7111 106.191C79.9912 108.086 83.7118 109.086 87.5 109.09C91.2899 109.084 95.0117 108.084 98.2938 106.189C101.576 104.294 104.303 101.571 106.203 98.2914L124.892 109.105C121.087 115.656 115.632 121.096 109.07 124.881C102.508 128.667 95.0684 130.667 87.4927 130.681C79.9135 130.677 72.4687 128.679 65.9056 124.888C59.3425 121.097 53.892 115.646 50.1011 109.083L24.3688 123.943C25.3896 125.708 26.7896 127.247 28.3281 128.136L81.8854 159.053C84.9698 160.839 90.0156 160.839 93.1073 159.053L146.665 128.136C148.203 127.247 149.603 125.708 150.624 123.943C151.645 122.186 152.272 120.203 152.272 118.416V56.5831C152.272 54.7966 151.645 52.8133 150.624 51.056ZM130.681 89.8987H125.883V94.6966H121.093V89.8987H116.295V85.1008H121.093V80.3028H125.883V85.1008H130.681V89.8987ZM148.677 89.8987H143.879V94.6966H139.081V89.8987H134.291V85.1008H139.081V80.3028H143.879V85.1008H148.677V89.8987Z" fill="black"/>
</svg>
