<svg width="204" height="206" viewBox="0 0 204 206" fill="none" xmlns="http://www.w3.org/2000/svg">
<path d="M197.23 142.256L183.224 71.1054C180.145 54.5482 166.056 42.0176 149.073 41.8566V41.8438H55.2617C38.1289 41.8373 23.8552 54.4419 20.757 71.1118L6.77341 142.256C6.51204 143.511 6.35904 144.799 6.37497 146.134C6.35904 156.087 14.2194 164.156 23.919 164.156C30.1729 164.156 35.6585 160.812 38.7759 155.765L61.8534 126.671C65.6542 130.315 70.6945 132.348 75.9358 132.352C87.3407 132.345 96.5876 122.86 96.5876 111.137L107.744 111.134C107.744 122.847 117 132.345 128.405 132.345C133.551 132.345 138.507 130.387 142.287 126.861L165.221 155.765C168.335 160.799 173.827 164.156 180.065 164.156C189.765 164.156 197.635 156.087 197.625 146.128C197.627 144.827 197.495 143.529 197.23 142.256ZM66.6857 68.1924C68.9265 65.8878 71.486 66.5605 72.3881 69.6892L72.3754 79.751C71.486 82.8828 68.9265 83.5588 66.692 81.2574L64.4002 78.9077C63.3223 77.7868 62.7193 76.2858 62.7193 74.7233C62.7193 73.1608 63.3223 71.6598 64.4002 70.5389L66.6857 68.1924ZM50.3752 57.1618L60.1672 57.1521C63.2113 58.0598 63.8647 60.6992 61.6175 63.0006L59.348 65.3438C58.8158 65.8912 58.1808 66.3259 57.4803 66.6227C56.7798 66.9195 56.0277 67.0723 55.268 67.0723C54.5084 67.0723 53.7563 66.9195 53.0558 66.6227C52.3553 66.3259 51.7203 65.8912 51.188 65.3438L48.8994 62.9974C46.6554 60.696 47.3089 58.0598 50.3752 57.1618ZM43.8504 81.2477C41.6032 83.5588 39.0341 82.8828 38.1448 79.751L38.1575 69.6892C39.0341 66.5573 41.6032 65.8846 43.844 68.1892L46.1263 70.5357C47.2058 71.6558 47.8098 73.1571 47.8098 74.7201C47.8098 76.283 47.2058 77.7843 46.1263 78.9044L43.8504 81.2477ZM60.1672 92.2848L50.3625 92.2944C47.3089 91.3739 46.6554 88.7506 48.9026 86.446L51.1912 84.0995C51.7235 83.5528 52.3581 83.1186 53.0582 82.8221C53.7583 82.5256 54.5098 82.3727 55.269 82.3724C56.0281 82.3721 56.7798 82.5244 57.4801 82.8203C58.1804 83.1163 58.8154 83.55 59.348 84.0963L61.6271 86.446C63.8647 88.7506 63.2049 91.3739 60.1672 92.2848ZM75.9199 125.335C68.2826 125.341 62.0765 118.984 62.0765 111.131C62.0765 103.283 68.2826 96.9166 75.9358 96.9166C83.5699 96.9262 89.7664 103.283 89.7664 111.127C89.7759 118.988 83.5699 125.348 75.9199 125.335ZM140.508 62.8718C143.683 62.8783 146.262 65.5273 146.262 68.7911C146.268 72.071 143.689 74.7265 140.495 74.7104C137.308 74.7201 134.729 72.071 134.729 68.7976C134.732 65.5273 137.308 62.8783 140.508 62.8718ZM128.405 125.341C120.768 125.341 114.571 118.978 114.565 111.131C114.571 103.283 120.765 96.9166 128.405 96.9166C136.058 96.923 142.258 103.283 142.252 111.131C142.252 118.978 136.062 125.335 128.405 125.341ZM141.037 92.4843C137.85 92.4843 135.268 89.8257 135.268 86.5586C135.265 83.2852 137.85 80.6329 141.037 80.6329C144.225 80.6329 146.8 83.2852 146.81 86.5586C146.81 89.8289 144.218 92.4843 141.037 92.4843ZM157.118 56.959C160.303 56.9558 162.884 59.6048 162.891 62.8783C162.884 66.1421 160.303 68.7976 157.118 68.7976C153.931 68.7976 151.352 66.1421 151.352 62.8783C151.346 59.6016 153.918 56.9461 157.118 56.959ZM157.654 86.5618C154.473 86.5651 151.891 83.916 151.9 80.6458C151.891 77.3723 154.473 74.7168 157.66 74.7265C160.841 74.7201 163.429 77.3659 163.429 80.6361C163.426 83.9128 160.841 86.5651 157.654 86.5618Z" fill="black"/>
</svg>
