<svg width="356" height="326" viewBox="0 0 356 326" fill="none" xmlns="http://www.w3.org/2000/svg">
<path d="M136.383 157.471L136.409 156.472L135.383 156.445V157.471H136.383ZM185.395 158.728L185.37 159.728L186.395 159.754V158.728H185.395ZM184.034 102.385L184.79 101.73L184.778 101.716L184.765 101.702L184.034 102.385ZM180.369 100.5L180.51 99.5097L180.502 99.5085L180.493 99.5074L180.369 100.5ZM153.663 97.1484H152.663V98.0307L153.539 98.1406L153.663 97.1484ZM153.663 85V84H152.663V85H153.663ZM235.979 85H236.979V84H235.979V85ZM235.979 97.1484L236.163 98.1312L236.979 97.9783V97.1484H235.979ZM219.222 100.29L219.394 101.275L219.407 101.273L219.222 100.29ZM215.557 102.28L216.333 102.911L216.338 102.905L215.557 102.28ZM215.557 230.676L216.357 230.076L216.336 230.047L216.313 230.021L215.557 230.676ZM219.432 232.875L219.236 233.855L219.239 233.856L219.432 232.875ZM235.979 236.121H236.979V235.299L236.171 235.14L235.979 236.121ZM235.979 248.584V249.584H236.979V248.584H235.979ZM116.59 248.584L115.595 248.687L115.687 249.584H116.59V248.584ZM116.485 206.903V205.903H115.568L115.489 206.816L116.485 206.903ZM130.518 206.903L131.487 206.655L131.295 205.903H130.518V206.903ZM135.545 226.591L134.576 226.839L134.581 226.855L134.585 226.871L135.545 226.591ZM137.745 230.571L138.452 229.864L137.745 230.571ZM141.619 232.98L141.255 233.911L141.27 233.917L141.285 233.922L141.619 232.98ZM185.395 235.388V236.388H186.395V235.388H185.395ZM185.395 173.599H186.395V172.562L185.359 172.6L185.395 173.599ZM136.383 175.38H135.383V176.417L136.419 176.379L136.383 175.38ZM136.357 158.471L185.37 159.728L185.421 157.728L136.409 156.472L136.357 158.471ZM186.395 158.728V106.155H184.395V158.728H186.395ZM186.395 106.155C186.395 104.463 185.865 102.97 184.79 101.73L183.278 103.04C184.019 103.894 184.395 104.914 184.395 106.155H186.395ZM184.765 101.702C183.626 100.482 182.194 99.7502 180.51 99.5097L180.227 101.49C181.476 101.668 182.487 102.193 183.303 103.067L184.765 101.702ZM180.493 99.5074L153.788 96.1561L153.539 98.1406L180.244 101.492L180.493 99.5074ZM154.663 97.1484V85H152.663V97.1484H154.663ZM153.663 86H235.979V84H153.663V86ZM234.979 85V97.1484H236.979V85H234.979ZM235.794 96.1655L219.038 99.3073L219.407 101.273L236.163 98.1312L235.794 96.1655ZM219.051 99.305C217.259 99.6166 215.797 100.379 214.776 101.655L216.338 102.905C216.992 102.087 217.974 101.522 219.394 101.275L219.051 99.305ZM214.781 101.649C213.711 102.965 213.195 104.557 213.195 106.364H215.195C215.195 104.96 215.587 103.829 216.333 102.911L214.781 101.649ZM213.195 106.364V226.487H215.195V106.364H213.195ZM213.195 226.487C213.195 228.408 213.698 230.058 214.801 231.331L216.313 230.021C215.6 229.199 215.195 228.056 215.195 226.487H213.195ZM214.757 231.276C215.779 232.639 217.317 233.472 219.236 233.855L219.628 231.894C218.055 231.58 217.01 230.946 216.357 230.076L214.757 231.276ZM219.239 233.856L235.786 237.103L236.171 235.14L219.624 231.894L219.239 233.856ZM234.979 236.121V248.584H236.979V236.121H234.979ZM235.979 247.584H116.59V249.584H235.979V247.584ZM117.584 248.481C116.89 241.744 116.542 234.936 116.542 228.057H114.542C114.542 235.003 114.893 241.88 115.595 248.687L117.584 248.481ZM116.542 228.057C116.542 221.246 116.855 214.223 117.481 206.989L115.489 206.816C114.858 214.104 114.542 221.185 114.542 228.057H116.542ZM116.485 207.903H130.518V205.903H116.485V207.903ZM129.549 207.15L134.576 226.839L136.514 226.344L131.487 206.655L129.549 207.15ZM134.585 226.871C135.109 228.667 135.914 230.154 137.037 231.278L138.452 229.864C137.62 229.032 136.959 227.867 136.505 226.311L134.585 226.871ZM137.037 231.278C138.133 232.374 139.552 233.244 141.255 233.911L141.984 232.048C140.476 231.458 139.311 230.723 138.452 229.864L137.037 231.278ZM141.285 233.922C143.55 234.726 146.53 235.33 150.197 235.753L150.426 233.767C146.832 233.352 144.018 232.77 141.954 232.037L141.285 233.922ZM150.197 235.753C153.871 236.177 157.819 236.388 162.041 236.388V234.388C157.885 234.388 154.014 234.181 150.426 233.767L150.197 235.753ZM162.041 236.388H185.395V234.388H162.041V236.388ZM186.395 235.388V173.599H184.395V235.388H186.395ZM185.359 172.6L136.347 174.38L136.419 176.379L185.432 174.599L185.359 172.6ZM137.383 175.38V157.471H135.383V175.38H137.383Z" fill="black"/>
<path d="M312.39 206.903H298.357L293.33 226.591C292.841 228.267 292.108 229.593 291.13 230.571C290.153 231.548 288.861 232.351 287.256 232.98C285.091 233.748 282.194 234.341 278.563 234.76C274.933 235.179 271.023 235.388 266.834 235.388H243.48V176.008L292.492 177.684V159.88L243.48 161.137V99.2429H272.28C276.469 99.2429 280.588 99.4175 284.637 99.7665C288.687 100.185 291.794 100.814 293.958 101.652C295.564 102.28 296.786 103.083 297.624 104.06C298.461 105.038 299.194 106.364 299.823 108.04L307.992 131.918L321.92 129.719C321.85 122.457 321.466 115.092 320.768 107.621C320.07 100.151 319.058 92.6102 317.731 85H192.896V97.1484L209.443 100.185C211.189 100.535 212.48 101.233 213.318 102.28C214.226 103.397 214.68 104.828 214.68 106.574V226.487C214.68 228.232 214.226 229.628 213.318 230.676C212.48 231.793 211.189 232.526 209.443 232.875L192.896 236.121V248.584H312.285C312.984 241.812 313.333 234.969 313.333 228.057C313.333 221.215 313.018 214.164 312.39 206.903Z" fill="#0F0000"/>
<path d="M312.39 206.903V205.903H313.307L313.386 206.816L312.39 206.903ZM298.357 206.903L297.388 206.655L297.58 205.903H298.357V206.903ZM293.33 226.591L294.299 226.839L294.294 226.855L294.29 226.871L293.33 226.591ZM291.13 230.571L290.423 229.864L291.13 230.571ZM287.256 232.98L287.62 233.911L287.605 233.917L287.59 233.922L287.256 232.98ZM243.48 235.388V236.388H242.48V235.388H243.48ZM243.48 176.008H242.48V174.973L243.514 175.009L243.48 176.008ZM292.492 177.684H293.492V178.718L292.458 178.683L292.492 177.684ZM292.492 159.88L292.466 158.88L293.492 158.854V159.88H292.492ZM243.48 161.137L243.505 162.136L242.48 162.163V161.137H243.48ZM243.48 99.2429H242.48V98.2429H243.48V99.2429ZM284.637 99.7665L284.723 98.7702L284.732 98.771L284.74 98.7719L284.637 99.7665ZM293.958 101.652L294.319 100.719L294.323 100.72L293.958 101.652ZM297.624 104.06L296.864 104.711L297.624 104.06ZM299.823 108.04L300.759 107.689L300.764 107.703L300.769 107.716L299.823 108.04ZM307.992 131.918L308.148 132.906L307.317 133.037L307.045 132.242L307.992 131.918ZM321.92 129.719L322.92 129.709L322.929 130.572L322.076 130.706L321.92 129.719ZM320.768 107.621L319.773 107.714L320.768 107.621ZM317.731 85V84H318.572L318.716 84.8283L317.731 85ZM192.896 85H191.896V84H192.896V85ZM192.896 97.1484L192.716 98.1319L191.896 97.9815V97.1484H192.896ZM209.443 100.185L209.624 99.2019L209.632 99.2033L209.639 99.2049L209.443 100.185ZM213.318 102.28L212.542 102.911L212.537 102.905L213.318 102.28ZM213.318 230.676L212.518 230.076L212.539 230.047L212.562 230.021L213.318 230.676ZM209.443 232.875L209.639 233.855L209.636 233.856L209.443 232.875ZM192.896 236.121H191.896V235.299L192.704 235.14L192.896 236.121ZM192.896 248.584V249.584H191.896V248.584H192.896ZM312.285 248.584L313.28 248.687L313.188 249.584H312.285V248.584ZM312.39 207.903H298.357V205.903H312.39V207.903ZM299.326 207.15L294.299 226.839L292.361 226.344L297.388 206.655L299.326 207.15ZM294.29 226.871C293.766 228.667 292.961 230.154 291.838 231.278L290.423 229.864C291.255 229.032 291.916 227.867 292.37 226.311L294.29 226.871ZM291.838 231.278C290.742 232.374 289.323 233.244 287.62 233.911L286.891 232.048C288.399 231.458 289.564 230.723 290.423 229.864L291.838 231.278ZM287.59 233.922C285.325 234.726 282.345 235.33 278.678 235.753L278.449 233.767C282.043 233.352 284.857 232.77 286.921 232.037L287.59 233.922ZM278.678 235.753C275.004 236.177 271.056 236.388 266.834 236.388V234.388C270.99 234.388 274.861 234.181 278.449 233.767L278.678 235.753ZM266.834 236.388H243.48V234.388H266.834V236.388ZM242.48 235.388V176.008H244.48V235.388H242.48ZM243.514 175.009L292.526 176.684L292.458 178.683L243.445 177.007L243.514 175.009ZM291.492 177.684V159.88H293.492V177.684H291.492ZM292.518 160.88L243.505 162.136L243.454 160.137L292.466 158.88L292.518 160.88ZM242.48 161.137V99.2429H244.48V161.137H242.48ZM243.48 98.2429H272.28V100.243H243.48V98.2429ZM272.28 98.2429C276.496 98.2429 280.644 98.4186 284.723 98.7702L284.551 100.763C280.531 100.416 276.441 100.243 272.28 100.243V98.2429ZM284.74 98.7719C288.822 99.1941 292.032 99.8338 294.319 100.719L293.597 102.584C291.555 101.794 288.551 101.177 284.534 100.761L284.74 98.7719ZM294.323 100.72C296.031 101.389 297.408 102.273 298.383 103.41L296.864 104.711C296.163 103.893 295.097 103.171 293.594 102.583L294.323 100.72ZM298.383 103.41C299.32 104.503 300.105 105.943 300.759 107.689L298.886 108.391C298.284 106.785 297.603 105.573 296.864 104.711L298.383 103.41ZM300.769 107.716L308.938 131.594L307.045 132.242L298.877 108.364L300.769 107.716ZM307.836 130.93L321.764 128.731L322.076 130.706L308.148 132.906L307.836 130.93ZM320.92 129.728C320.851 122.496 320.468 115.158 319.773 107.714L321.764 107.528C322.465 115.025 322.85 122.419 322.92 129.709L320.92 129.728ZM319.773 107.714C319.077 100.271 318.068 92.7566 316.746 85.1717L318.716 84.8283C320.047 92.4638 321.063 100.03 321.764 107.528L319.773 107.714ZM317.731 86H192.896V84H317.731V86ZM193.896 85V97.1484H191.896V85H193.896ZM193.077 96.1648L209.624 99.2019L209.263 101.169L192.716 98.1319L193.077 96.1648ZM209.639 99.2049C211.539 99.5849 213.072 100.372 214.099 101.655L212.537 102.905C211.889 102.094 210.838 101.484 209.247 101.166L209.639 99.2049ZM214.094 101.649C215.176 102.98 215.68 104.649 215.68 106.574H213.68C213.68 105.007 213.276 103.814 212.542 102.911L214.094 101.649ZM215.68 106.574V226.487H213.68V106.574H215.68ZM215.68 226.487C215.68 228.408 215.177 230.058 214.074 231.331L212.562 230.021C213.275 229.199 213.68 228.056 213.68 226.487H215.68ZM214.118 231.276C213.096 232.639 211.558 233.472 209.639 233.855L209.247 231.894C210.82 231.58 211.865 230.946 212.518 230.076L214.118 231.276ZM209.636 233.856L193.089 237.103L192.704 235.14L209.251 231.894L209.636 233.856ZM193.896 236.121V248.584H191.896V236.121H193.896ZM192.896 247.584H312.285V249.584H192.896V247.584ZM311.291 248.481C311.985 241.744 312.333 234.936 312.333 228.057H314.333C314.333 235.003 313.982 241.88 313.28 248.687L311.291 248.481ZM312.333 228.057C312.333 221.246 312.02 214.223 311.394 206.989L313.386 206.816C314.017 214.104 314.333 221.185 314.333 228.057H312.333Z" fill="black"/>
</svg>
